<?xml version="1.0" encoding="utf-8"?>
<!-- Generator: Adobe Illustrator 27.0.1, SVG Export Plug-In . SVG Version: 6.00 Build 0)  -->
<svg version="1.1" id="Layer_1" xmlns="http://www.w3.org/2000/svg" xmlns:xlink="http://www.w3.org/1999/xlink" x="0px" y="0px"
	 viewBox="0 0 176 160" style="enable-background:new 0 0 176 160;" xml:space="preserve">
<style type="text/css">
	.st0{fill:none;stroke:#000000;stroke-miterlimit:10;}
	.st1{fill:#333333;}
	.st2{fill:#1D2957;}
</style>
<g>
	<g>
		<circle class="st2" cx="80.29" cy="124.51" r="7.82"/>
		<path class="st2" d="M70.45,116.52L44,91.4c-0.4-0.44-0.39-1.08,0.03-1.5l1.22-1.22c0.58-0.55,0.63-1.42,0.11-2.03l-4.43-6.01
			c-0.4-0.47-0.46-1.13-0.14-1.64l3.7-5.42c0.25-0.41,0.17-0.93-0.21-1.26l-1.89-1.65c-0.4-0.35-1.01-0.37-1.43-0.06
			c-4.58,3.41-30.29,22.69-17.84,47.32c6.36,12.59,25.71,13.53,29.77,12.16c3.38-1.14,12.16-5.89,17.34-8.97
			C71.07,120.63,71.69,117.78,70.45,116.52z"/>
		<path class="st2" d="M61.2,128.43c-1.92,0.91-1.32,3.92,0.36,3.7c3.01-0.41,21.36-2.71,21.36-2.71l-6.44-9.19L61.2,128.43z"/>
		<path class="st2" d="M85.63,105.71c0.92-2.02,2.82-0.88,2.72,0.71c-0.19,2.94-1.19,19.13-1.19,19.13l-8.4-6.43L85.63,105.71z"/>
		<path class="st2" d="M44.19,29.19c8.88-2.11,25.28-2,30.74-1.94c0.69,0.01,1.31,0.01,1.84,0.01v-0.01
			c6.62,0.06,11.34,0.23,11.34,0.23v69.74c-0.16,0.7-6.81,12.09-8.9,15.68c-0.75,1.28-1.81,2.77-3.28,2.99
			c-1.59,0.24-3.16-0.88-3.12-1.97c0,0,5.97-69.97,5.94-78.3c-0.16-0.01-0.82-0.04-1.99-0.05l-0.01,0c-0.56,0-1.2-0.01-1.92-0.02
			c-14.89-0.16-40.94,0.93-41.11,12.14c-0.06,3.85,0.85,6.66,2.77,8.61c4.92,4.99,23.08,4.97,34.62,4.97l0.88,0l0,8.3l-0.88,0
			c-0.53,0-1.06,0-1.59,0c-13.27,0-31.87-0.27-38.94-7.44c-3.51-3.56-5.25-8.46-5.16-14.56C25.53,41.19,28.86,32.83,44.19,29.19z"/>
	</g>
	<g>
		<circle class="st2" cx="101.42" cy="124.45" r="7.82"/>
		<path class="st2" d="M111.27,116.45l26.45-25.12c0.4-0.44,0.39-1.08-0.03-1.5l-1.22-1.22c-0.58-0.55-0.63-1.42-0.11-2.03
			l4.43-6.01c0.4-0.47,0.46-1.13,0.14-1.64l-3.7-5.42c-0.25-0.41-0.17-0.93,0.21-1.26l1.89-1.65c0.4-0.35,1.01-0.37,1.43-0.06
			c4.58,3.41,30.29,22.69,17.84,47.32c-6.36,12.59-25.71,13.53-29.77,12.16c-3.38-1.14-12.16-5.89-17.34-8.97
			C110.65,120.57,110.02,117.72,111.27,116.45z"/>
		<path class="st2" d="M120.52,128.36c1.92,0.91,1.32,3.92-0.36,3.7c-3.01-0.41-21.36-2.71-21.36-2.71l6.44-9.19L120.52,128.36z"/>
		<path class="st2" d="M96.08,105.64c-0.92-2.02-2.82-0.88-2.72,0.71c0.19,2.94,1.19,19.13,1.19,19.13l8.4-6.43L96.08,105.64z"/>
		<path class="st2" d="M137.53,29.13c-8.88-2.11-25.28-2-30.74-1.94c-0.69,0.01-1.31,0.01-1.84,0.01v-0.01
			c-6.62,0.06-11.34,0.23-11.34,0.23v69.74c0.16,0.7,6.81,12.09,8.9,15.68c0.75,1.28,1.81,2.77,3.28,2.99
			c1.59,0.24,3.16-0.88,3.12-1.97c0,0-5.97-69.97-5.94-78.3c0.16-0.01,0.82-0.04,1.99-0.05l0.01,0c0.56,0,1.2-0.01,1.92-0.02
			c14.89-0.16,40.94,0.93,41.11,12.14c0.06,3.85-0.85,6.66-2.77,8.61c-4.92,4.99-23.08,4.97-34.62,4.97l-0.88,0l0,8.3l0.88,0
			c0.53,0,1.06,0,1.59,0c13.27,0,31.87-0.27,38.94-7.44c3.51-3.56,5.25-8.46,5.16-14.56C156.19,41.13,152.86,32.77,137.53,29.13z"/>
	</g>
</g>
</svg>
